<?xml version="1.0" encoding="UTF-8"?>
<svg id="Layer_1" data-name="Layer 1" xmlns="http://www.w3.org/2000/svg" viewBox="0 0 2160 2160">
  <defs>
    <style>
      .cls-1 {
        fill: #fff;
      }
    </style>
  </defs>
  <g>
    <path class="cls-1" d="M664.9,1371.25h-79.14v-631.79h79.14v631.79Z"/>
    <path class="cls-1" d="M765.13,1141.59c0-137.27,87.05-239.34,211.91-239.34s196.08,97.67,196.08,225.26v26.4h-332.38c4.4,96.79,59.79,158.39,139.81,158.39,61.55,0,105.52-33.44,119.58-87.99l69.46,24.64c-28.14,81.83-97.6,131.99-189.05,131.99-127.5,0-215.43-97.67-215.43-239.34ZM845.15,1093.19h247.96c-1.76-65.11-36.93-123.19-116.95-123.19-66.83,0-116.95,44.88-131.02,123.19Z"/>
    <path class="cls-1" d="M1271.61,911.05h79.14v62.48c26.38-37.84,72.1-71.27,137.17-71.27,97.6,0,153,67.75,153,165.43v303.58h-79.14v-282.46c0-64.23-27.26-112.63-95.84-112.63-57.15,0-115.19,44-115.19,120.55v274.54h-79.14v-460.2Z"/>
    <path class="cls-1" d="M1735.88,1141.59c0-131.11,72.98-239.34,200.48-239.34,64.19,0,115.19,30.8,142.45,75.67v-238.46h79.14v631.79h-79.14v-66.87c-27.26,45.76-78.26,76.55-142.45,76.55-127.5,0-200.48-109.11-200.48-239.34ZM1950.43,971.76c-86.17,0-134.53,70.39-134.53,169.83s48.36,169.83,134.53,169.83c65.07,0,130.14-47.52,130.14-153.11v-32.56c0-107.35-65.07-153.99-130.14-153.99Z"/>
  </g>
  <g>
    <g>
      <polygon class="cls-1" points="469.99 1302.79 469.99 1370.76 3 1370.76 3.88 1320.44 171.59 1092.25 264.25 1092.25 109.82 1302.79 469.99 1302.79"/>
      <polygon class="cls-1" points="484.12 739.57 484.12 792.53 318.67 1018.08 226.1 1018.08 380.84 807.54 14.47 807.54 14.47 739.57 484.12 739.57"/>
    </g>
    <polygon class="cls-1" points="226.11 1018.08 171.59 1092.26 78.93 1092.26 133.47 1018.08 226.11 1018.08"/>
    <polygon class="cls-1" points="411.43 1018.08 356.9 1092.26 264.25 1092.26 318.67 1018.08 411.43 1018.08"/>
  </g>
</svg>