<svg width="2301" height="366" viewBox="0 0 2301 366" fill="none" xmlns="http://www.w3.org/2000/svg">
<path d="M950.875 253.125H922.75V281.25H810.25V253.125H782.125V225H838.375V253.125H894.625V196.875H866.5V168.75H838.375V140.625H810.25V112.5H782.125V56.25H810.25V28.125H922.75V56.25H950.875V84.375H894.625V56.25H838.375V112.5H866.5V140.625H894.625V168.75H922.75V196.875H950.875V253.125Z" fill="#186F44"/>
<path d="M1175.88 253.125H1147.75V281.25H1035.25V253.125H1007.12V112.5H1035.25V84.375H1147.75V112.5H1175.88V253.125ZM1119.62 253.125V112.5H1063.38V253.125H1119.62Z" fill="#186F44"/>
<path d="M1400.88 253.125H1372.75V281.25H1260.25V253.125H1232.12V112.5H1260.25V84.375H1372.75V112.5H1400.88V140.625H1344.62V112.5H1288.38V253.125H1344.62V225H1400.88V253.125Z" fill="#186F44"/>
<path d="M1569.62 56.25H1513.38V0H1569.62V56.25ZM1625.88 281.25H1457.12V253.125H1513.38V112.5H1457.12V84.375H1569.62V253.125H1625.88V281.25Z" fill="#186F44"/>
<path d="M1850.88 196.875H1738.38V253.125H1822.75V281.25H1710.25V253.125H1682.12V112.5H1710.25V84.375H1822.75V112.5H1850.88V196.875ZM1794.62 168.75V112.5H1738.38V168.75H1794.62Z" fill="#186F44"/>
<path d="M2075.88 281.25H1963.38V253.125H1935.25V112.5H1907.12V84.375H1935.25V28.125H1991.5V84.375H2075.88V112.5H1991.5V253.125H2075.88V281.25Z" fill="#186F44"/>
<path d="M2300.88 253.125H2272.75V309.375H2244.62V337.5H2216.5V365.625H2104V337.5H2188.38V309.375H2216.5V281.25H2160.25V253.125H2132.12V84.375H2188.38V253.125H2244.62V84.375H2300.88V253.125Z" fill="#186F44"/>
<path d="M725.875 281.25H557.125V225H585.25V196.875H613.375V168.75H641.5V140.625H669.625V112.5H557.125V84.375H725.875V140.625H697.75V168.75H669.625V196.875H641.5V225H613.375V253.125H725.875V281.25Z" fill="#186F44"/>
<path fill-rule="evenodd" clip-rule="evenodd" d="M223 128.767C178.563 128.341 157.955 90.8018 124.117 85.9127C52.4684 75.5536 -4.24224 155.394 0.249586 223.111C7.80302 337.014 164.168 247.913 223 248.551C282.47 247.281 438.194 337.014 445.75 223.111C450.245 155.394 393.531 75.5536 321.885 85.9127C288.047 90.8018 267.434 128.341 223 128.767Z" fill="url(#paint0_linear_233_261)"/>
<path fill-rule="evenodd" clip-rule="evenodd" d="M126.822 136.388C153.958 136.388 175.96 158.45 175.96 185.663C175.96 212.877 153.958 234.939 126.822 234.939C99.6861 234.939 77.6865 212.877 77.6865 185.663C77.6865 158.45 99.6888 136.388 126.822 136.388Z" fill="white"/>
<path fill-rule="evenodd" clip-rule="evenodd" d="M126.822 154.953C143.734 154.953 157.446 168.704 157.446 185.665C157.446 202.626 143.734 216.377 126.822 216.377C109.909 216.377 96.2002 202.626 96.2002 185.665C96.2002 168.704 109.912 154.953 126.822 154.953Z" fill="black"/>
<path fill-rule="evenodd" clip-rule="evenodd" d="M136.586 168.05C141.975 168.05 146.345 172.432 146.345 177.837C146.345 183.241 141.972 187.623 136.586 187.623C131.2 187.623 126.825 183.241 126.825 177.837C126.825 172.432 131.194 168.05 136.586 168.05Z" fill="white"/>
<path fill-rule="evenodd" clip-rule="evenodd" d="M319.176 136.388C346.312 136.388 368.312 158.45 368.312 185.663C368.312 212.877 346.312 234.939 319.176 234.939C292.041 234.939 270.041 212.877 270.041 185.663C270.041 158.45 292.041 136.388 319.176 136.388Z" fill="white"/>
<path fill-rule="evenodd" clip-rule="evenodd" d="M319.176 154.953C336.085 154.953 349.797 168.704 349.797 185.665C349.797 202.626 336.085 216.377 319.176 216.377C302.266 216.377 288.549 202.626 288.549 185.665C288.549 168.704 302.261 154.953 319.176 154.953Z" fill="black"/>
<path fill-rule="evenodd" clip-rule="evenodd" d="M328.936 168.05C334.331 168.05 338.697 172.432 338.697 177.837C338.697 183.241 334.331 187.623 328.936 187.623C323.541 187.623 319.18 183.241 319.18 177.837C319.18 172.432 323.547 168.05 328.936 168.05Z" fill="white"/>
<defs>
<linearGradient id="paint0_linear_233_261" x1="1150.44" y1="0" x2="1150.44" y2="365.625" gradientUnits="userSpaceOnUse">
<stop offset="0.0001" stop-color="#186F44"/>
</linearGradient>
</defs>
</svg>
